<?xml version="1.0" encoding="utf-8"?>
<!-- Generator: Adobe Illustrator 24.0.1, SVG Export Plug-In . SVG Version: 6.00 Build 0)  -->
<svg version="1.1" id="Layer_1" xmlns="http://www.w3.org/2000/svg" xmlns:xlink="http://www.w3.org/1999/xlink" x="0px" y="0px"
	 viewBox="0 0 50 50" style="enable-background:new 0 0 50 50;" xml:space="preserve">
<style type="text/css">
	.st0{fill:#11CDBD;}
</style>
<path class="st0" d="M43.7,39h-4.1c-0.4,0-0.8-0.3-0.8-0.8c0-0.4,0.3-0.8,0.8-0.8h4.1c0.2,0,0.3-0.1,0.4-0.2
	c0.1-0.1,0.2-0.3,0.1-0.4l-0.3-5.6c-0.1-0.3-0.2-0.6-0.3-0.8c-0.1-0.4,0.1-0.8,0.5-1c0.4-0.1,0.8,0.1,1,0.5c0.1,0.3,0.2,0.7,0.3,1
	c0,0,0,0.1,0,0.1l0.3,5.6c0,0.6-0.2,1.1-0.6,1.5C44.8,38.8,44.3,39,43.7,39z M10.2,39H5.7c-0.6,0-1.1-0.2-1.5-0.7
	c-0.4-0.4-0.6-1-0.6-1.5l0.3-5.6c0,0,0-0.1,0-0.1c0.5-1.9,1.4-3.6,2.6-5c0.9-1.1,2-2,3.2-2.7c-1-0.7-1.6-1.6-1.8-2.6
	c-0.5-2,0.8-3.8,0.8-3.9l4-5.4c1.5-2.1,2.9-4.3,4.3-6.5l1.1-1.7C19.6,1.2,21.9,0,24.7,0c2.8,0,5.1,1.2,6.5,3.4l1.1,1.7
	c1.4,2.1,2.8,4.4,4.3,6.5l4,5.4c0.1,0.1,1.5,2.1,0.7,4.3c-0.1,0.4-0.6,0.6-1,0.5c-0.4-0.1-0.6-0.6-0.5-1c0.5-1.4-0.5-2.8-0.5-2.9
	l-4-5.4c-1.5-2.2-3-4.4-4.3-6.6l-1.1-1.7c-1.1-1.7-3-2.7-5.2-2.7c-2.3,0-4.1,0.9-5.2,2.7l-1.1,1.7c-1.4,2.2-2.8,4.4-4.3,6.5l-4,5.4
	c0,0-0.9,1.3-0.6,2.6c0.2,0.9,1,1.7,2.2,2.3c0.3,0.1,0.4,0.4,0.4,0.7c0,0.3-0.2,0.6-0.5,0.7c-1.5,0.6-2.9,1.6-4,2.9
	c-1.1,1.2-1.8,2.7-2.3,4.3l-0.3,5.6c0,0.2,0,0.3,0.1,0.4c0.1,0.1,0.3,0.2,0.4,0.2h4.5c0.4,0,0.8,0.3,0.8,0.8
	C11,38.7,10.6,39,10.2,39z"/>
<path class="st0" d="M24.7,25.3C24.7,25.3,24.6,25.3,24.7,25.3c-0.2,0-0.3,0-0.3,0c-3.8-0.5-5.1-3.5-5.5-4.8
	c-0.1-0.4-0.3-0.8-0.6-1.1c-0.8-0.8-1.2-1.8-1.2-2.9v-5.5c0-0.8,0.4-1.6,1.1-2.1c0.7-0.5,1.5-0.6,2.3-0.3c1.7,0.7,3.8,0.9,4.2,0.9
	c0.4,0,2.5-0.3,4.2-0.9c0.8-0.3,1.6-0.2,2.3,0.3c0.7,0.5,1.1,1.2,1.1,2.1v5.5c0,1.1-0.4,2.1-1.2,2.9c-0.3,0.3-0.5,0.7-0.6,1.1
	c-0.4,1.3-1.6,4.2-5.5,4.8L24.7,25.3C24.8,25.3,24.7,25.3,24.7,25.3z M19.6,10.2c-0.2,0-0.4,0.1-0.5,0.2c-0.3,0.2-0.4,0.5-0.4,0.8
	v5.5c0,0.7,0.3,1.3,0.7,1.8c0.5,0.5,0.8,1.1,1,1.7c0.3,1.2,1.4,3.3,4.2,3.7c0,0,0.1,0,0.1,0l0.1,0c2.9-0.4,3.9-2.5,4.3-3.7
	c0.2-0.6,0.5-1.2,1-1.7c0.5-0.5,0.7-1.1,0.7-1.8v-5.5c0-0.3-0.2-0.6-0.4-0.8c-0.3-0.2-0.6-0.2-0.9-0.1c-2.1,0.8-4.6,1-4.7,1.1
	c0,0-0.1,0-0.1,0c-0.1,0-2.6-0.2-4.7-1.1C19.8,10.2,19.7,10.2,19.6,10.2z"/>
<path class="st0" d="M29.2,15.7c-0.2,0-0.5-0.1-0.6-0.3c-0.4-0.5-0.8-0.8-1-0.8c-0.4,0-0.8,0.5-0.9,0.8c-0.2,0.4-0.7,0.5-1,0.3
	c-0.4-0.2-0.5-0.7-0.3-1c0.1-0.2,0.8-1.5,2.1-1.6c0.9-0.1,1.6,0.5,2.3,1.5c0.2,0.3,0.1,0.8-0.2,1.1C29.5,15.7,29.3,15.7,29.2,15.7z"
	/>
<path class="st0" d="M23.5,15.7c-0.3,0-0.5-0.1-0.7-0.4c-0.1-0.2-0.5-0.8-0.9-0.8c0,0,0,0,0,0c-0.3,0-0.6,0.3-1,0.8
	c-0.2,0.3-0.7,0.4-1.1,0.2c-0.3-0.2-0.4-0.7-0.2-1.1c0.7-1,1.5-1.5,2.3-1.5c1.3,0.1,2.1,1.4,2.1,1.6c0.2,0.4,0.1,0.8-0.3,1
	C23.7,15.7,23.6,15.7,23.5,15.7z"/>
<path class="st0" d="M39.6,45.9c0,0-0.1,0-0.2,0c-0.4-0.1-0.7-0.5-0.6-0.9l0-14.8c0-0.4,0.3-0.8,0.8-0.8c0.4,0,0.8,0.3,0.8,0.8V45
	c0,0.1,0,0.2,0,0.3C40.3,45.7,40,45.9,39.6,45.9z"/>
<path class="st0" d="M10.2,45.9c-0.3,0-0.6-0.2-0.7-0.5c-0.1-0.2-0.1-0.3-0.1-0.4V28c0-1,0.8-1.9,1.9-1.9h23.9
	c0.4,0,0.8,0.3,0.8,0.8s-0.3,0.8-0.8,0.8H11.3c-0.2,0-0.4,0.2-0.4,0.4v17c0.1,0.4-0.1,0.7-0.5,0.9C10.4,45.9,10.3,45.9,10.2,45.9z"
	/>
<path class="st0" d="M38.9,50H11c-1.6,0-2.9-1.3-2.9-2.9v-1.9c0-0.4,0.3-0.8,0.8-0.8H41c0.4,0,0.8,0.3,0.8,0.8v1.9
	C41.8,48.7,40.5,50,38.9,50z M9.6,45.9v1.1c0,0.8,0.6,1.4,1.4,1.4h27.9c0.8,0,1.4-0.6,1.4-1.4v-1.1H9.6z"/>
<path class="st0" d="M45.2,31h-11c-0.4,0-0.8-0.2-1.1-0.6c-0.2-0.4-0.2-0.9,0-1.2l5.5-9.6c0.2-0.4,0.6-0.6,1.1-0.6
	c0.4,0,0.9,0.2,1.1,0.6l5.5,9.6c0.2,0.4,0.2,0.8,0,1.2C46,30.8,45.6,31,45.2,31z M34.6,29.5h10.1l-5-8.7L34.6,29.5z"/>
<path class="st0" d="M39.6,27c-0.4,0-0.8-0.3-0.8-0.8v-3.1c0-0.4,0.3-0.8,0.8-0.8c0.4,0,0.8,0.3,0.8,0.8v3.1
	C40.4,26.7,40.1,27,39.6,27z"/>
<path class="st0" d="M39.6,29.1c-0.4,0-0.8-0.3-0.8-0.8v-0.2c0-0.4,0.3-0.8,0.8-0.8c0.4,0,0.8,0.3,0.8,0.8v0.2
	C40.4,28.7,40.1,29.1,39.6,29.1z"/>
<path class="st0" d="M24.9,40.2c-1.9,0-3.5-1.6-3.5-3.5c0-1.9,1.6-3.5,3.5-3.5s3.5,1.6,3.5,3.5C28.5,38.6,26.9,40.2,24.9,40.2z
	 M24.9,34.6c-1.1,0-2,0.9-2,2c0,1.1,0.9,2,2,2c1.1,0,2-0.9,2-2C26.9,35.5,26,34.6,24.9,34.6z"/>
<path class="st0" d="M24.7,20.8c-0.8,0-1.7-0.3-2.5-0.9c-0.3-0.3-0.4-0.7-0.2-1.1c0.3-0.3,0.7-0.4,1.1-0.2c1.1,0.8,2,0.8,3.1,0
	c0.3-0.3,0.8-0.2,1.1,0.2c0.3,0.3,0.2,0.8-0.2,1.1C26.4,20.5,25.5,20.8,24.7,20.8z"/>
</svg>
