<?xml version="1.0" encoding="utf-8"?>
<!-- Generator: Adobe Illustrator 24.0.1, SVG Export Plug-In . SVG Version: 6.00 Build 0)  -->
<svg version="1.1" id="Layer_1" xmlns="http://www.w3.org/2000/svg" xmlns:xlink="http://www.w3.org/1999/xlink" x="0px" y="0px"
	 viewBox="0 0 50 50" style="enable-background:new 0 0 50 50;" xml:space="preserve">
<style type="text/css">
	.st0{fill:#11CDBD;}
</style>
<g>
	<path class="st0" d="M28.3,22.6c0-1.9-1.5-3.4-3.4-3.4s-3.4,1.5-3.4,3.4c0,1.6,1.1,2.9,2.5,3.3l0,3.6c0,0.5,0.4,0.8,0.9,0.8h0
		c0.5,0,0.9-0.4,0.9-0.8l0-3.6C27.3,25.4,28.3,24.1,28.3,22.6z M25,24.2c-0.9,0-1.6-0.7-1.6-1.7s0.7-1.7,1.6-1.7
		c0.9,0,1.6,0.7,1.6,1.7S25.9,24.2,25,24.2z"/>
	<path class="st0" d="M46.8,21.6c-1.5,0-2.7,1-3.1,2.3h-5.8c0.3-1.6,0.6-3.2,0.8-4.9h4.2c0.5,0,0.8-0.3,0.8-0.8V10
		c1.4-0.4,2.4-1.6,2.4-3.1c0-1.8-1.4-3.2-3.2-3.2c-1.8,0-3.2,1.4-3.2,3.2c0,1.5,1,2.7,2.3,3.1v7.3h-3.1c0.1-1.3,0.2-2.7,0.3-4
		c0-0.5-0.5-1-1-0.9c-1,0.2-2,0.3-3.1,0.3c-3.4,0-6.6-1.6-9.6-4.7c-0.4-0.4-0.8-0.4-1.3,0c-3.2,3.8-7.6,5.3-12.5,4.4
		c-0.5-0.1-1.1,0.3-1,0.9c0.1,1.4,0.2,2.7,0.3,4H8.2V10c1.3-0.4,2.3-1.6,2.3-3.1c0-1.8-1.4-3.2-3.2-3.2c-1.8,0-3.2,1.4-3.2,3.2
		c0,1.5,1,2.7,2.4,3.1v8.2c0,0.5,0.4,0.8,0.8,0.8h3.9c0.2,1.7,0.4,3.3,0.8,4.9H6.3c-0.4-1.4-1.6-2.3-3.1-2.3C1.4,21.6,0,23,0,24.8
		C0,26.6,1.4,28,3.2,28c1.5,0,2.7-1,3.1-2.3h6.1c0.5,1.7,1.1,3.3,1.8,4.9H7.4c-0.5,0-0.8,0.3-0.8,0.8V40c-1.4,0.4-2.4,1.6-2.4,3.1
		c0,1.8,1.4,3.2,3.2,3.2c1.8,0,3.2-1.4,3.2-3.2c0-1.5-1-2.7-2.3-3.1v-7.7h7c2.2,3.4,5.3,5.8,9.5,7.4c0.2,0.1,0.4,0.1,0.6,0
		c4.1-1.6,7.2-4.1,9.4-7.4H42V40c-1.3,0.4-2.3,1.6-2.3,3.1c0,1.8,1.5,3.2,3.2,3.2c1.8,0,3.2-1.4,3.2-3.2c0-1.5-1-2.7-2.4-3.1v-8.6
		c0-0.5-0.3-0.8-0.8-0.8h-7.2c0.7-1.6,1.4-3.2,1.8-4.9h6.2c0.4,1.4,1.6,2.3,3.1,2.3c1.8,0,3.2-1.4,3.2-3.2S48.6,21.6,46.8,21.6z
		 M41.4,6.9c0-0.8,0.7-1.5,1.5-1.5c0.8,0,1.5,0.7,1.5,1.5c0,0.8-0.7,1.5-1.5,1.5C42.1,8.4,41.4,7.8,41.4,6.9z M5.9,6.9
		c0-0.8,0.7-1.5,1.5-1.5s1.5,0.7,1.5,1.5c0,0.8-0.7,1.5-1.5,1.5S5.9,7.8,5.9,6.9z M3.2,26.3c-0.8,0-1.5-0.7-1.5-1.5
		c0-0.8,0.7-1.5,1.5-1.5s1.5,0.7,1.5,1.5C4.7,25.6,4,26.3,3.2,26.3z M8.9,43.1c0,0.8-0.7,1.5-1.5,1.5s-1.5-0.7-1.5-1.5
		c0-0.8,0.7-1.5,1.5-1.5S8.9,42.2,8.9,43.1z M44.4,43.1c0,0.8-0.7,1.5-1.5,1.5s-1.5-0.7-1.5-1.5c0-0.8,0.7-1.5,1.5-1.5
		S44.4,42.2,44.4,43.1z M12.5,14.3c4.6,0.6,9.3-0.8,12.4-4.4c3.4,3.3,7.7,5.2,12.5,4.4C36.6,25.2,35,33.9,25,37.9
		C15,34,13.3,25.3,12.5,14.3z M46.8,26.3c-0.8,0-1.5-0.7-1.5-1.5c0-0.8,0.7-1.5,1.5-1.5c0.8,0,1.5,0.7,1.5,1.5
		C48.3,25.6,47.6,26.3,46.8,26.3z"/>
</g>
</svg>
