<?xml version="1.0" encoding="utf-8"?>
<!-- Generator: Adobe Illustrator 24.0.1, SVG Export Plug-In . SVG Version: 6.00 Build 0)  -->
<svg version="1.1" id="Layer_1" xmlns="http://www.w3.org/2000/svg" xmlns:xlink="http://www.w3.org/1999/xlink" x="0px" y="0px"
	 viewBox="0 0 50 50" style="enable-background:new 0 0 50 50;" xml:space="preserve">
<style type="text/css">
	.st0{fill:#11CDBD;}
</style>
<g>
	<path class="st0" d="M33.8,15.2H22.7l-0.9-1.8c-0.7-1.4-1.9-2.1-3.4-2.1h-6c-1.6,0-2.9,1.3-2.9,2.9v21.5c0,1.6,1.3,2.9,2.9,2.9
		h25.4c1.6,0,2.9-1.3,2.9-2.9V22.1c0-1.6-1.3-2.9-2.9-2.9h-1v-1C36.7,16.5,35.4,15.2,33.8,15.2z M37.7,21.1c0.5,0,1,0.4,1,1v13.7
		c0,0.5-0.4,1-1,1H15.1c0.1-0.3,0.2-0.6,0.2-1V22.1c0-0.5,0.4-1,1-1h6.3c1.3,0,1.3-1.9,0-2h-6.3c-1.6,0-2.9,1.3-2.9,2.9v13.7
		c0,1.3-1.9,1.3-2,0V14.3c0-0.5,0.4-1,1-1h6c0.8,0,1.3,0.3,1.7,1.1l1.2,2.3c0.2,0.3,0.5,0.5,0.9,0.5h11.7c0.5,0,1,0.4,1,1v1h-3.4
		c-1.3,0-1.3,1.9,0,2H37.7z"/>
	<path class="st0" d="M49,24c-0.5,0-1,0.4-1,1C46.9,55.5,3.1,55.5,2,25C1.8,4.6,27.3-5.8,41.4,8.9h-3c-1.3,0-1.3,1.9,0,2h5.2
		c0.5,0,1-0.4,1-1V4.6c0-1.3-1.9-1.3-2,0v2.7C26.9-8.3,0,2.8,0,25c-0.3,13.4,11.6,25.3,25,25c13.4,0.3,25.3-11.6,25-25
		C50,24.5,49.6,24,49,24z"/>
	<path class="st0" d="M27,19.1L27,19.1c-0.5,0-1,0.4-1,1c0,1.3,1.9,1.3,2,0C27.9,19.6,27.5,19.1,27,19.1z"/>
</g>
</svg>
