<?xml version="1.0" encoding="utf-8"?>
<!-- Generator: Adobe Illustrator 24.0.1, SVG Export Plug-In . SVG Version: 6.00 Build 0)  -->
<svg version="1.1" id="Layer_1" xmlns="http://www.w3.org/2000/svg" xmlns:xlink="http://www.w3.org/1999/xlink" x="0px" y="0px"
	 viewBox="0 0 50 50" style="enable-background:new 0 0 50 50;" xml:space="preserve">
<style type="text/css">
	.st0{fill:#11CDBD;}
</style>
<g>
	<path class="st0" d="M17.2,15.6h1.6v1.6h-1.6V15.6z"/>
	<path class="st0" d="M20.3,15.6h1.6v1.6h-1.6V15.6z"/>
	<path class="st0" d="M23.4,15.6H25v1.6h-1.6V15.6z"/>
	<path class="st0" d="M17.2,25h1.6v1.6h-1.6V25z"/>
	<path class="st0" d="M20.3,25h1.6v1.6h-1.6V25z"/>
	<path class="st0" d="M23.4,25H25v1.6h-1.6V25z"/>
	<path class="st0" d="M38.6,27.9l-0.4-0.2l-0.4,0.2c-2.1,1.1-4.4,1.7-6.7,1.8l-0.7,0v5c0,4.9,3,9.3,7.5,11.2l0.3,0.1l0.3-0.1
		c4.6-1.8,7.5-6.2,7.5-11.2v-5l-0.7,0C43,29.6,40.7,29,38.6,27.9z M44.5,34.7c0,4.2-2.4,7.9-6.3,9.6c-3.8-1.7-6.3-5.4-6.3-9.6v-3.5
		c2.2-0.2,4.3-0.8,6.3-1.7c2,0.9,4.1,1.5,6.3,1.7V34.7z"/>
	<path class="st0" d="M46.2,26.6c-1.8,0-3.6-0.4-5.3-1.1c0.3-1.4,0.5-2.9,0.5-4.4c0-11.2-9.1-20.3-20.3-20.3
		C9.9,0.8,0.8,9.9,0.8,21.1c0,11.2,9.1,20.3,20.3,20.3c2.5,0,4.9-0.5,7.2-1.3c1.6,4.3,5.1,7.7,9.7,9.1l0.2,0.1l0.2-0.1
		c6.4-2,10.7-7.8,10.7-14.5v-8.1H46.2z M39.2,24.6l-0.9-0.5l-0.9,0.5c-1.8,1.1-3.8,1.7-5.9,1.9c0.3-1.5,0.5-3.1,0.6-4.6h7.8
		c0,1-0.2,2-0.3,2.9C39.4,24.7,39.3,24.7,39.2,24.6z M21.2,39.5C21.1,39.6,21.1,39.6,21.2,39.5c-0.1,0-0.1,0-0.1,0
		c-1.8-1.5-4.9-4.1-7-8.3h13.3v1.5C25.3,36,22.8,38.1,21.2,39.5z M27.3,26.6v3.1h-14c-0.9-2.2-1.5-4.8-1.6-7.8h18.7
		c0,1.6-0.3,3.2-0.6,4.7H27.3z M2.4,21.9h7.8c0.1,3,0.6,5.6,1.5,7.8H4.4C3.2,27.3,2.5,24.7,2.4,21.9z M21.1,2.6c1.2,1,4.4,4,6.7,8.4
		H14.4C16.7,6.6,19.9,3.6,21.1,2.6z M28.5,12.5c1,2.3,1.8,4.9,1.9,7.8H11.7c0.1-2.9,0.9-5.5,1.9-7.8H28.5z M39.8,20.3H32
		c-0.1-2.9-0.8-5.5-1.7-7.8h7.5C39,14.9,39.7,17.5,39.8,20.3z M10.2,20.3H2.4c0.1-2.8,0.9-5.5,2.1-7.8h7.5
		C11,14.8,10.3,17.4,10.2,20.3z M36.8,10.9h-7.3C27.6,7,25,4.1,23.3,2.5C29,3.2,33.9,6.4,36.8,10.9z M18.9,2.5
		c-1.7,1.6-4.3,4.6-6.3,8.5H5.3C8.3,6.4,13.2,3.2,18.9,2.5z M5.3,31.3h6.9c1.8,4,4.5,6.7,6.5,8.4C13.2,39,8.3,35.8,5.3,31.3z
		 M23.4,39.7c1.2-1.1,2.6-2.5,4-4.3c0.1,1.1,0.2,2.1,0.5,3.1C26.4,39.1,24.9,39.5,23.4,39.7z M47.7,34.7c0,5.9-3.8,11.1-9.4,12.9
		c-5.6-1.8-9.4-7-9.4-12.9v-6.6h1.5c0,0,0,0,0.1,0h0.6l0,0c2.5-0.1,5-0.8,7.1-2.1l0.1-0.1l0.1,0.1c2.4,1.4,5.1,2.2,7.8,2.2h1.5V34.7
		z"/>
	<path class="st0" d="M35.7,36.6l-1.1,1.1l2.9,2.9l6.4-6.4L42.8,33l-5.3,5.3L35.7,36.6z"/>
	<path class="st0" d="M44.4,18.9c-0.9,0.4-1.5,1.2-1.5,2.2c0,1.3,1.1,2.3,2.3,2.3c1.3,0,2.3-1.1,2.3-2.3c0-1.1-0.7-1.9-1.7-2.2
		c-0.6-6.2-3.4-12-8-16.2l-1.1,1.2C41.3,7.8,43.9,13.1,44.4,18.9z M45.3,21.9c-0.4,0-0.8-0.4-0.8-0.8c0-0.4,0.4-0.8,0.8-0.8
		c0.4,0,0.8,0.4,0.8,0.8C46.1,21.5,45.7,21.9,45.3,21.9z"/>
	<path class="st0" d="M36.7,1.6c-0.4-0.4-0.9-0.7-1.4-1l-0.9,1.3c0.4,0.3,0.9,0.6,1.3,1L36.7,1.6z"/>
	<path class="st0" d="M1.9,34.6l-1.3,0.9c0.3,0.5,0.7,0.9,1,1.4l1.2-1C2.6,35.5,2.2,35,1.9,34.6z"/>
	<path class="st0" d="M24.2,43c-1,0-1.9,0.6-2.2,1.5c-0.3,0-0.6,0-0.9,0c-6.5,0-12.8-2.7-17.2-7.5l-1.1,1.1c4.7,5.1,11.4,8,18.3,8
		c0.3,0,0.6,0,0.9,0c0.3,0.9,1.2,1.6,2.2,1.6c1.3,0,2.3-1.1,2.3-2.3C26.6,44,25.5,43,24.2,43z M24.2,46.1c-0.4,0-0.8-0.4-0.8-0.8
		s0.4-0.8,0.8-0.8c0.4,0,0.8,0.4,0.8,0.8S24.6,46.1,24.2,46.1z"/>
</g>
</svg>
