<?xml version="1.0" encoding="utf-8"?>
<!-- Generator: Adobe Illustrator 24.0.1, SVG Export Plug-In . SVG Version: 6.00 Build 0)  -->
<svg version="1.1" id="Layer_1" xmlns="http://www.w3.org/2000/svg" xmlns:xlink="http://www.w3.org/1999/xlink" x="0px" y="0px"
	 viewBox="0 0 50 50" style="enable-background:new 0 0 50 50;" xml:space="preserve">
<style type="text/css">
	.st0{fill:#11CDBD;}
</style>
<g>
	<path class="st0" d="M28.4,45.3h-4.4c-0.4-1.2-1.3-2.2-2.6-2.6V38c0-0.5-0.4-1-1-1c-0.5,0-1,0.4-1,1v4.7c-1.6,0.4-2.7,1.9-2.7,3.6
		c0,2,1.7,3.7,3.7,3.7c1.7,0,3.2-1.2,3.6-2.8h4.3c0.5,0,1-0.4,1-1S29,45.3,28.4,45.3z M20.5,48c-1,0-1.8-0.8-1.8-1.8
		c0-1,0.8-1.8,1.8-1.8c1,0,1.8,0.8,1.8,1.8C22.3,47.3,21.5,48,20.5,48z"/>
	<path class="st0" d="M13.3,45.3H1.7c-0.5,0-1,0.4-1,1s0.4,1,1,1h11.6c0.5,0,1-0.4,1-1S13.9,45.3,13.3,45.3z"/>
	<path class="st0" d="M33,3.3c-1.6,0-2.9,1.3-2.9,2.9s1.3,2.9,2.9,2.9c1.6,0,2.9-1.3,2.9-2.9S34.6,3.3,33,3.3z M33,7.2
		c-0.5,0-1-0.4-1-1c0-0.5,0.4-1,1-1c0.5,0,1,0.4,1,1C34,6.8,33.5,7.2,33,7.2z"/>
	<path class="st0" d="M18.6,5.3H6.3c-0.5,0-1,0.4-1,1s0.4,1,1,1h12.3c0.5,0,1-0.4,1-1S19.1,5.3,18.6,5.3z"/>
	<path class="st0" d="M27.5,5.6c-0.2-0.2-0.4-0.3-0.7-0.3c-0.3,0-0.5,0.1-0.7,0.3c-0.2,0.2-0.3,0.4-0.3,0.7c0,0.3,0.1,0.5,0.3,0.7
		c0.2,0.2,0.4,0.3,0.7,0.3c0.3,0,0.5-0.1,0.7-0.3c0.2-0.2,0.3-0.4,0.3-0.7C27.8,6,27.7,5.7,27.5,5.6z"/>
	<path class="st0" d="M23.4,5.6c-0.2-0.2-0.4-0.3-0.7-0.3c-0.3,0-0.5,0.1-0.7,0.3c-0.2,0.2-0.3,0.4-0.3,0.7c0,0.3,0.1,0.5,0.3,0.7
		c0.2,0.2,0.4,0.3,0.7,0.3c0.3,0,0.5-0.1,0.7-0.3c0.2-0.2,0.3-0.4,0.3-0.7C23.7,6,23.5,5.7,23.4,5.6z"/>
	<path class="st0" d="M33,14.3c-1.6,0-2.9,1.3-2.9,2.9s1.3,2.9,2.9,2.9c1.6,0,2.9-1.3,2.9-2.9S34.6,14.3,33,14.3z M33,18.2
		c-0.5,0-1-0.4-1-1s0.4-1,1-1c0.5,0,1,0.4,1,1S33.5,18.2,33,18.2z"/>
	<path class="st0" d="M18.6,16.2H6.3c-0.5,0-1,0.4-1,1c0,0.5,0.4,1,1,1h12.3c0.5,0,1-0.4,1-1C19.6,16.6,19.1,16.2,18.6,16.2z"/>
	<path class="st0" d="M27.5,16.5c-0.2-0.2-0.4-0.3-0.7-0.3c-0.3,0-0.5,0.1-0.7,0.3c-0.2,0.2-0.3,0.4-0.3,0.7c0,0.3,0.1,0.5,0.3,0.7
		c0.2,0.2,0.4,0.3,0.7,0.3c0.3,0,0.5-0.1,0.7-0.3c0.2-0.2,0.3-0.4,0.3-0.7C27.8,16.9,27.7,16.7,27.5,16.5z"/>
	<path class="st0" d="M23.4,16.5c-0.2-0.2-0.4-0.3-0.7-0.3c-0.3,0-0.5,0.1-0.7,0.3c-0.2,0.2-0.3,0.4-0.3,0.7c0,0.3,0.1,0.5,0.3,0.7
		c0.2,0.2,0.4,0.3,0.7,0.3c0.3,0,0.5-0.1,0.7-0.3c0.2-0.2,0.3-0.4,0.3-0.7C23.7,16.9,23.5,16.7,23.4,16.5z"/>
	<path class="st0" d="M38,11.9c1.8-1.1,3-3.2,3-5.5C41,2.9,38.1,0,34.6,0H6.4C2.9,0,0,2.9,0,6.4c0,2.3,1.2,4.3,3,5.5
		c-1.8,1.1-3,3.2-3,5.5c0,2.3,1.2,4.3,3,5.5C1.2,24,0,26,0,28.3c0,3.6,2.9,6.4,6.4,6.4H25c0.5,0,1-0.4,1-1s-0.4-1-1-1H6.4
		c-2.5,0-4.5-2-4.5-4.5c0-2.5,2-4.5,4.5-4.5h28.1c3.6,0,6.4-2.9,6.4-6.4C41,15.1,39.8,13.1,38,11.9z M2,6.4C2,4,4,2,6.4,2h28.1
		c2.5,0,4.5,2,4.5,4.5s-2,4.5-4.5,4.5H6.4C4,10.9,2,8.9,2,6.4z M34.6,21.9H6.4c-2.5,0-4.5-2-4.5-4.5c0-2.5,2-4.5,4.5-4.5h28.1
		c2.5,0,4.5,2,4.5,4.5C39.1,19.9,37,21.9,34.6,21.9z"/>
	<path class="st0" d="M18.6,27.1H6.3c-0.5,0-1,0.4-1,1c0,0.5,0.4,1,1,1h12.3c0.5,0,1-0.4,1-1C19.6,27.6,19.1,27.1,18.6,27.1z"/>
	<path class="st0" d="M27.5,27.4c-0.2-0.2-0.4-0.3-0.7-0.3c-0.3,0-0.5,0.1-0.7,0.3c-0.2,0.2-0.3,0.4-0.3,0.7c0,0.3,0.1,0.5,0.3,0.7
		c0.2,0.2,0.4,0.3,0.7,0.3c0.3,0,0.5-0.1,0.7-0.3c0.2-0.2,0.3-0.4,0.3-0.7C27.8,27.9,27.7,27.6,27.5,27.4z"/>
	<path class="st0" d="M23.4,27.4c-0.2-0.2-0.4-0.3-0.7-0.3c-0.3,0-0.5,0.1-0.7,0.3c-0.2,0.2-0.3,0.4-0.3,0.7c0,0.3,0.1,0.5,0.3,0.7
		c0.2,0.2,0.4,0.3,0.7,0.3c0.3,0,0.5-0.1,0.7-0.3c0.2-0.2,0.3-0.4,0.3-0.7C23.7,27.9,23.5,27.6,23.4,27.4z"/>
	<path class="st0" d="M49.3,29.1c-0.1,0-6.2-1.5-9.5-4.8c-0.1-0.1-0.3-0.2-0.5-0.3c-0.1,0-0.1,0-0.2,0c0,0,0,0,0,0
		c-0.1,0-0.3,0-0.4,0.1c-0.1,0-0.2,0.1-0.3,0.2c-3.2,3.3-9.4,4.8-9.5,4.8c-0.4,0.1-0.7,0.5-0.7,0.9v9.1c0,4.1,2.6,6.2,5.5,7.8
		c2.5,1.5,5,2.8,5,2.8c0.1,0.1,0.3,0.1,0.5,0.1h0c0.2,0,0.3,0,0.5-0.1c0,0,2.5-1.4,5-2.8c2.8-1.7,5.5-3.8,5.5-7.8v-9.1
		C50,29.6,49.7,29.2,49.3,29.1z M48,39.2c0,2.9-1.7,4.5-4.5,6.2c-1.8,1.1-3.7,2.1-4.5,2.5c-0.8-0.5-2.7-1.5-4.5-2.5
		c-2.8-1.6-4.5-3.2-4.5-6.2v-8.4c1.7-0.5,6-1.9,9-4.5c3,2.6,7.3,4,9,4.5L48,39.2L48,39.2z"/>
	<path class="st0" d="M43.8,32.6c-0.4-0.4-1-0.4-1.4,0l-4.2,4.2L37,35.6c-0.4-0.4-1-0.4-1.4,0c-0.4,0.4-0.4,1,0,1.4l1.9,1.9
		c0.2,0.2,0.4,0.3,0.7,0.3c0.2,0,0.5-0.1,0.7-0.3l4.9-4.9C44.2,33.6,44.2,32.9,43.8,32.6z"/>
</g>
</svg>
