<?xml version="1.0" encoding="utf-8"?>
<!-- Generator: Adobe Illustrator 24.0.1, SVG Export Plug-In . SVG Version: 6.00 Build 0)  -->
<svg version="1.1" id="Layer_1" xmlns="http://www.w3.org/2000/svg" xmlns:xlink="http://www.w3.org/1999/xlink" x="0px" y="0px"
	 viewBox="0 0 50 50" style="enable-background:new 0 0 50 50;" xml:space="preserve">
<style type="text/css">
	.st0{fill:#11CDBD;}
</style>
<path class="st0" d="M48.4,19.5c0,2.3-0.9,4.5-2.5,6.1c-1.6,1.6-3.8,2.5-6.1,2.5h-1.6c-0.2,0-0.4-0.1-0.6-0.2
	c-0.1-0.1-0.2-0.3-0.2-0.6c0-0.2,0.1-0.4,0.2-0.6c0.1-0.1,0.3-0.2,0.6-0.2h1.6c1.9,0,3.7-0.7,5-2.1s2.1-3.1,2.1-5s-0.7-3.7-2.1-5
	s-3.1-2.1-5-2.1l-0.2,0c-0.2,0-0.4-0.1-0.5-0.2c-0.1-0.1-0.2-0.3-0.3-0.4c-0.2-1-0.7-2-1.4-2.8c-0.7-0.8-1.6-1.4-2.6-1.7
	c-1-0.3-2.1-0.4-3.1-0.2c-1.1,0.2-2,0.7-2.9,1.3c-0.1,0.1-0.2,0.1-0.3,0.2c-0.1,0-0.2,0-0.4,0c-0.1,0-0.2-0.1-0.3-0.2
	c-0.1-0.1-0.2-0.2-0.2-0.3c-0.7-1.7-1.9-3.1-3.5-4c-1.6-0.9-3.4-1.2-5.2-0.9c-1.8,0.3-3.4,1.3-4.6,2.7s-1.8,3.2-1.8,5
	c0,0.3,0,0.6,0.1,0.9c0,0.1,0,0.2,0,0.4c0,0.1-0.1,0.2-0.2,0.3c-0.1,0.1-0.2,0.1-0.3,0.2s-0.2,0-0.4,0c-1-0.2-2-0.2-2.9,0
	c-1,0.2-1.9,0.6-2.7,1.2c-0.8,0.6-1.5,1.3-2,2.2c-0.5,0.9-0.8,1.8-0.9,2.8c-0.1,1,0,2,0.3,2.9c0.3,0.9,0.8,1.8,1.5,2.5
	C5.6,25,6.4,25.6,7.3,26c0.9,0.4,1.9,0.6,2.9,0.6h1.6c0.2,0,0.4,0.1,0.6,0.2c0.1,0.1,0.2,0.3,0.2,0.6c0,0.2-0.1,0.4-0.2,0.6
	c-0.1,0.1-0.3,0.2-0.6,0.2h-1.6c-2.3,0-4.5-0.9-6.1-2.5c-1.6-1.6-2.5-3.8-2.5-6.1c0-2.3,0.9-4.5,2.5-6.1c1.6-1.6,3.8-2.5,6.1-2.5
	c0.3,0,0.5,0,0.8,0v0c0-2.1,0.7-4.1,2-5.8c1.3-1.7,3.1-2.8,5.2-3.3s4.2-0.3,6.1,0.6c1.9,0.9,3.5,2.4,4.4,4.3c1-0.6,2.2-1,3.3-1.2
	c1.2-0.1,2.4,0,3.5,0.4c1.1,0.4,2.1,1.1,3,1.9c0.8,0.9,1.4,1.9,1.8,3.1c2.2,0.1,4.3,1.1,5.8,2.7C47.6,15.2,48.4,17.3,48.4,19.5z
	 M35.9,24.2c0,9.7-10.6,13.2-10.7,13.2c-0.2,0.1-0.3,0.1-0.5,0c-0.1,0-10.7-3.6-10.7-13.2v-7.8c0-0.1,0-0.2,0.1-0.3
	c0-0.1,0.1-0.2,0.2-0.3c0.1-0.1,0.2-0.1,0.3-0.2c0.1,0,0.2-0.1,0.3-0.1c3.4-0.1,6.8-1.1,9.7-3c0.1-0.1,0.3-0.1,0.5-0.1
	s0.3,0.1,0.5,0.1c2.9,1.9,6.2,2.9,9.7,3c0.1,0,0.2,0,0.3,0.1c0.1,0,0.2,0.1,0.3,0.2c0.1,0.1,0.1,0.2,0.2,0.3c0,0.1,0.1,0.2,0.1,0.3
	V24.2z M34.4,17.2C31.1,17,27.8,16,25,14.2c-2.8,1.8-6.1,2.8-9.4,2.9v7c0,7.8,7.9,11.1,9.4,11.7c1.5-0.6,9.4-3.9,9.4-11.7V17.2z
	 M28.1,45.3c0,0.6-0.2,1.2-0.5,1.7c-0.3,0.5-0.7,0.9-1.3,1.2c-0.5,0.3-1.1,0.4-1.7,0.3c-0.6-0.1-1.1-0.3-1.6-0.6
	c-0.5-0.4-0.8-0.8-1-1.4c-0.2-0.5-0.2-1.1-0.1-1.7c0.1-0.6,0.4-1.1,0.8-1.5c0.4-0.4,0.9-0.7,1.5-0.9v-2.5c0-0.2,0.1-0.4,0.2-0.6
	c0.1-0.1,0.3-0.2,0.6-0.2s0.4,0.1,0.6,0.2c0.1,0.1,0.2,0.3,0.2,0.6v2.5c0.7,0.2,1.3,0.6,1.7,1.1C27.9,44,28.1,44.6,28.1,45.3z
	 M26.6,45.3c0-0.3-0.1-0.6-0.3-0.9c-0.2-0.3-0.4-0.5-0.7-0.6c-0.3-0.1-0.6-0.1-0.9-0.1c-0.3,0.1-0.6,0.2-0.8,0.4
	c-0.2,0.2-0.4,0.5-0.4,0.8c-0.1,0.3,0,0.6,0.1,0.9c0.1,0.3,0.3,0.5,0.6,0.7c0.3,0.2,0.6,0.3,0.9,0.3c0.4,0,0.8-0.2,1.1-0.5
	C26.4,46.1,26.6,45.7,26.6,45.3z M45.3,45.3c0,0.8-0.3,1.5-0.8,2.1c-0.5,0.6-1.2,0.9-1.9,1c-0.8,0.1-1.5-0.1-2.1-0.5
	c-0.6-0.4-1.1-1.1-1.3-1.8h-2.5c-1,0-2-0.4-2.8-1.1s-1.1-1.7-1.1-2.8v-7c0-0.2,0.1-0.4,0.2-0.6c0.1-0.1,0.3-0.2,0.6-0.2
	c0.2,0,0.4,0.1,0.6,0.2c0.1,0.1,0.2,0.3,0.2,0.6v7c0,0.6,0.2,1.2,0.7,1.7c0.4,0.4,1,0.7,1.7,0.7h2.5c0.2-0.7,0.6-1.4,1.3-1.8
	c0.6-0.4,1.4-0.6,2.1-0.5c0.8,0.1,1.4,0.5,1.9,1C45,43.8,45.3,44.6,45.3,45.3z M43.8,45.3c0-0.3-0.1-0.6-0.3-0.9
	c-0.2-0.3-0.4-0.5-0.7-0.6c-0.3-0.1-0.6-0.1-0.9-0.1c-0.3,0.1-0.6,0.2-0.8,0.4c-0.2,0.2-0.4,0.5-0.4,0.8c-0.1,0.3,0,0.6,0.1,0.9
	c0.1,0.3,0.3,0.5,0.6,0.7c0.3,0.2,0.6,0.3,0.9,0.3c0.4,0,0.8-0.2,1.1-0.5C43.6,46.1,43.7,45.7,43.8,45.3z M17.2,35.2v7
	c0,1-0.4,2-1.1,2.8s-1.7,1.1-2.8,1.1h-2.5c-0.2,0.7-0.6,1.4-1.3,1.8c-0.6,0.4-1.4,0.6-2.1,0.5c-0.8-0.1-1.4-0.5-2-1
	c-0.5-0.6-0.8-1.3-0.8-2.1s0.3-1.5,0.8-2.1c0.5-0.6,1.2-0.9,2-1c0.8-0.1,1.5,0.1,2.1,0.5c0.6,0.4,1.1,1.1,1.3,1.8h2.5
	c0.6,0,1.2-0.2,1.7-0.7c0.4-0.4,0.7-1,0.7-1.7v-7c0-0.2,0.1-0.4,0.2-0.6c0.1-0.1,0.3-0.2,0.6-0.2c0.2,0,0.4,0.1,0.6,0.2
	C17.1,34.8,17.2,34.9,17.2,35.2z M9.4,45.3c0-0.3-0.1-0.6-0.3-0.9c-0.2-0.3-0.4-0.5-0.7-0.6c-0.3-0.1-0.6-0.1-0.9-0.1
	c-0.3,0.1-0.6,0.2-0.8,0.4c-0.2,0.2-0.4,0.5-0.4,0.8c-0.1,0.3,0,0.6,0.1,0.9c0.1,0.3,0.3,0.5,0.6,0.7c0.3,0.2,0.6,0.3,0.9,0.3
	c0.4,0,0.8-0.2,1.1-0.5C9.2,46.1,9.4,45.7,9.4,45.3z M20.1,24.4c-0.1-0.1-0.2-0.1-0.3-0.2c-0.1,0-0.2-0.1-0.3-0.1
	c-0.1,0-0.2,0-0.3,0.1c-0.1,0-0.2,0.1-0.3,0.2c-0.1,0.1-0.1,0.2-0.2,0.3c0,0.1-0.1,0.2-0.1,0.3c0,0.1,0,0.2,0.1,0.3
	c0,0.1,0.1,0.2,0.2,0.3l3.9,3.9c0.1,0.1,0.2,0.1,0.3,0.2c0.1,0,0.2,0.1,0.3,0.1s0.2,0,0.3-0.1c0.1,0,0.2-0.1,0.3-0.2l7-7
	c0.1-0.1,0.1-0.2,0.2-0.3c0-0.1,0.1-0.2,0.1-0.3c0-0.1,0-0.2-0.1-0.3c0-0.1-0.1-0.2-0.2-0.3c-0.1-0.1-0.2-0.1-0.3-0.2
	c-0.1,0-0.2-0.1-0.3-0.1c-0.1,0-0.2,0-0.3,0.1c-0.1,0-0.2,0.1-0.3,0.2l-6.5,6.5L20.1,24.4z"/>
</svg>
