<?xml version="1.0" encoding="utf-8"?>
<!-- Generator: Adobe Illustrator 24.0.1, SVG Export Plug-In . SVG Version: 6.00 Build 0)  -->
<svg version="1.1" id="Layer_1" xmlns="http://www.w3.org/2000/svg" xmlns:xlink="http://www.w3.org/1999/xlink" x="0px" y="0px"
	 viewBox="0 0 50 50" style="enable-background:new 0 0 50 50;" xml:space="preserve">
<style type="text/css">
	.st0{fill:#11CDBD;}
</style>
<g>
	<path class="st0" d="M39.8,33.7h2.8c0.4,1.6,1.9,2.8,3.6,2.8c2.1,0,3.8-1.7,3.8-3.8c0-2.1-1.7-3.8-3.8-3.8c-1.7,0-3.2,1.2-3.6,2.8
		h-2.8v-8.3h2.8c0.4,1.6,1.9,2.8,3.6,2.8c2.1,0,3.8-1.7,3.8-3.8s-1.7-3.8-3.8-3.8c-1.7,0-3.2,1.2-3.6,2.8h-2.8
		c-0.3-3-2.8-5.4-5.9-5.4h-0.7V9.4c0-4.8-3.9-8.7-8.7-8.7h-9.1c-4.8,0-8.7,3.9-8.7,8.7v6.7H5.9C2.7,16.1,0,18.7,0,22v21.4
		c0,3.3,2.7,5.9,5.9,5.9h27.9c3.1,0,5.6-2.3,5.9-5.3h2.8c0.4,1.6,1.9,2.8,3.6,2.8c2.1,0,3.8-1.7,3.8-3.8c0-2.1-1.7-3.8-3.8-3.8
		c-1.7,0-3.2,1.2-3.6,2.8h-2.8V33.7z M46.2,30.9c1,0,1.8,0.8,1.8,1.8c0,1-0.8,1.8-1.8,1.8c-1,0-1.8-0.8-1.8-1.8
		C44.4,31.7,45.3,30.9,46.2,30.9z M46.2,20.7c1,0,1.8,0.8,1.8,1.8c0,1-0.8,1.8-1.8,1.8c-1,0-1.8-0.8-1.8-1.8
		C44.4,21.5,45.3,20.7,46.2,20.7z M8.6,9.4c0-3.7,3-6.7,6.7-6.7h9.1c3.7,0,6.7,3,6.7,6.7v6.7h-2.6V9.4c0-2.3-1.9-4.1-4.1-4.1h-9.1
		c-2.3,0-4.1,1.9-4.1,4.1v6.7H8.6V9.4z M26.7,16.1H13.2V9.4c0-1.2,1-2.2,2.2-2.2h9.1c1.2,0,2.2,1,2.2,2.2V16.1z M33.9,47.4H5.9
		c-2.2,0-4-1.8-4-4V22c0-2.2,1.8-4,4-4h27.9c2,0,3.7,1.5,4,3.5h-6.6c-0.3,0-0.5,0.1-0.7,0.3l-2.9,3.3H22c-0.5,0-1,0.4-1,1
		c0,0.5,0.4,1,1,1h6.1c0.3,0,0.5-0.1,0.7-0.3l2.9-3.3h6.2v8.3H22.3c-0.5,0-1,0.4-1,1c0,0.5,0.4,1,1,1h15.6V42h-6.2l-2.9-3.3
		c-0.2-0.2-0.5-0.3-0.7-0.3H22c-0.5,0-1,0.4-1,1c0,0.5,0.4,1,1,1h5.6l2.9,3.3c0.2,0.2,0.5,0.3,0.7,0.3h6.6
		C37.5,45.9,35.9,47.4,33.9,47.4z M46.2,41.2c1,0,1.8,0.8,1.8,1.8c0,1-0.8,1.8-1.8,1.8c-1,0-1.8-0.8-1.8-1.8
		C44.4,42,45.3,41.2,46.2,41.2z"/>
	<path class="st0" d="M14,24h0.7v6.7c0,0.5,0.4,1,1,1c0.5,0,1-0.4,1-1V23c0-0.5-0.4-1-1-1H14c-0.5,0-1,0.4-1,1
		C13,23.6,13.5,24,14,24z"/>
	<path class="st0" d="M8.3,21.9c-1.8,0-3.2,1.4-3.2,3.2v3.5c0,1.8,1.4,3.2,3.2,3.2c1.8,0,3.2-1.4,3.2-3.2v-3.5
		C11.5,23.3,10.1,21.9,8.3,21.9z M9.5,28.6c0,0.7-0.6,1.2-1.2,1.2c-0.7,0-1.2-0.6-1.2-1.2v-3.5c0-0.7,0.6-1.2,1.2-1.2
		c0.7,0,1.2,0.6,1.2,1.2V28.6z"/>
	<path class="st0" d="M8.1,34.7H6.4c-0.5,0-1,0.4-1,1c0,0.5,0.4,1,1,1h0.7v6.7c0,0.5,0.4,1,1,1c0.5,0,1-0.4,1-1v-7.6
		C9,35.1,8.6,34.7,8.1,34.7z"/>
	<path class="st0" d="M14.9,34.5c-1.8,0-3.2,1.4-3.2,3.2v3.5c0,1.8,1.4,3.2,3.2,3.2c1.8,0,3.2-1.4,3.2-3.2v-3.5
		C18,35.9,16.6,34.5,14.9,34.5z M16.1,41.2c0,0.7-0.6,1.2-1.2,1.2c-0.7,0-1.2-0.6-1.2-1.2v-3.5c0-0.7,0.6-1.2,1.2-1.2
		c0.7,0,1.2,0.6,1.2,1.2V41.2z"/>
</g>
</svg>
