<?xml version="1.0" encoding="utf-8"?>
<!-- Generator: Adobe Illustrator 24.0.1, SVG Export Plug-In . SVG Version: 6.00 Build 0)  -->
<svg version="1.1" id="Layer_1" xmlns="http://www.w3.org/2000/svg" xmlns:xlink="http://www.w3.org/1999/xlink" x="0px" y="0px"
	 viewBox="0 0 50 50" style="enable-background:new 0 0 50 50;" xml:space="preserve">
<g>
	<path d="M9,30.3c1-0.9,2-1.8,3-2.6c1.2-1,2.5-1.8,4-2.2c0.2-0.1,0.4-0.2,0.4-0.5c0.2-5.6,2.6-10,7.3-13.1c0,0,0,0,0.1-0.1
		c-0.6-0.8-0.8-1.7-0.5-2.7c0.3-1,1-1.6,1.9-2c-0.1-0.1-0.1-0.3-0.2-0.4c-0.7-1.3-1.4-2.5-2.1-3.8c-0.4-0.8-0.2-1.4,0.7-1.6
		C25,1,26.4,0.8,27.9,0.8c2,0,4,0,6,0.6c1,0.3,1.3,0.8,0.7,1.8c-0.7,1.4-1.5,2.7-2.3,4.1c1,0.4,1.7,1,2,1.9c0.3,1,0.1,1.9-0.5,2.7
		c4.6,3.1,7,7.5,7.4,13.1c0.1,0,0.2-0.1,0.3-0.2c0.8-0.5,1.5-1,2.3-1.5c2-1.2,4.5-0.3,5.3,1.8c0.5,1.4,0.3,2.9-0.9,4
		c-2.3,2.2-4.7,4.4-7,6.5c-1.4,1.3-2.8,2.6-4.3,4c-1,1-2.3,1.5-3.7,1.5c-4.3,0-8.5,0-12.8,0c-0.2,0-0.3,0-0.4,0
		c0.1,0.4,0.4,0.7,0.3,1c-0.1,0.3-0.4,0.7-0.6,1c-1.9,1.9-3.7,3.8-5.6,5.6c-0.7,0.7-1.1,0.7-1.8,0c-3.6-3.6-7.3-7.3-10.9-10.9
		c-0.7-0.7-0.7-1.1,0-1.8c1.9-1.9,3.7-3.7,5.6-5.6C7.8,29.5,7.9,29.5,9,30.3z M10.4,31.7c0.1,0.1,0.1,0.2,0.2,0.2
		c2.4,2.4,4.7,4.7,7.1,7.1c0.1,0.1,0.4,0.2,0.6,0.2c5,0,9.9,0,14.9,0c0.9,0,1.7-0.3,2.4-0.9c1.6-1.5,3.2-3.1,4.9-4.6
		c2.1-2,4.2-3.9,6.3-5.9c0.5-0.5,0.8-1.1,0.7-1.8c-0.3-1.3-1.6-1.8-2.8-1.1c-2.9,1.9-5.8,3.8-8.7,5.7c-0.3,0.2-0.4,0.4-0.4,0.8
		c0.1,2-1.4,3.8-3.4,3.9c-2.3,0.1-4.7,0-7,0c-0.5,0-0.9-0.4-0.9-0.9c0-0.5,0.4-0.9,0.9-1c0.1,0,0.3,0,0.4,0c2,0,4.1,0,6.1,0
		c1.2,0,2-0.8,2-1.9c0-1.1-0.9-1.9-2-1.9c-1.1,0-2.2,0-3.4,0c-1.1,0-1.9-0.3-2.8-0.9c-2.9-2.1-6-2.5-9.3-1.3
		C13.8,28.3,12.2,30.2,10.4,31.7z M34.6,29.2c1.4-0.9,2.6-1.8,4-2.6c0.5-0.3,0.7-0.7,0.7-1.3c0-4.5-1.8-8.3-5.3-11.1
		c-3.3-2.7-7.2-2.6-10.5,0.2c-2.4,2-3.9,4.5-4.7,7.6c-0.2,1-0.3,2-0.5,2.9c1.1,0.1,2.1,0.1,3.1,0.2c2,0.3,3.8,1.1,5.5,2.4
		c0.3,0.2,0.6,0.4,1,0.3c0-0.4,0-0.7,0-1c-0.3-0.2-0.6-0.3-0.8-0.5c-0.3-0.2-0.5-0.4-0.7-0.6c-0.5-0.5-0.5-1.1-0.1-1.5
		c0.4-0.4,0.9-0.3,1.5,0.2c0.3,0.2,0.6,0.5,0.9,0.6c0.5,0.2,1-0.2,1.2-0.7c0.1-0.5-0.2-1-0.7-1.1c-0.1,0-0.3,0-0.4,0
		c-1.1-0.1-2.1-0.9-2.5-2c-0.3-1.1,0-2.4,0.9-3c0.7-0.4,0.9-0.9,0.9-1.7c0-0.5,0.4-0.9,0.9-0.9c0.5,0,0.9,0.4,1,0.9
		c0,0.2,0,0.4,0,0.7c0,0.3,0.1,0.5,0.4,0.6c0.4,0.2,0.7,0.4,1,0.7c0.4,0.4,0.5,0.9,0.1,1.3c-0.3,0.4-0.9,0.5-1.4,0.1
		c-0.2-0.1-0.3-0.3-0.5-0.4c-0.4-0.2-0.8-0.2-1.1,0.1c-0.3,0.3-0.4,0.6-0.3,1c0.2,0.4,0.5,0.6,0.9,0.7c1.4,0.1,2.4,0.9,2.7,2.3
		c0.3,1.3-0.3,2.5-1.6,3.1c-0.1,0.1-0.2,0.2-0.3,0.3c0,0.3,0,0.6,0,1C31.6,27.8,33.3,27.6,34.6,29.2z M8,32.1
		c-1.6,1.6-3.2,3.2-4.8,4.8c3.3,3.3,6.6,6.6,9.9,9.9c1.6-1.6,3.2-3.2,4.8-4.8C14.6,38.7,11.2,35.4,8,32.1z M25.1,3
		c0.7,1.2,1.3,2.4,2,3.6c0.1,0.1,0.3,0.1,0.4,0.1c0.5,0,0.9-0.1,1.4-0.1c0.5,0,1.1,0.2,1.5,0c0.4-0.2,0.5-0.9,0.8-1.3
		c0.4-0.8,0.9-1.6,1.3-2.4C30,2.4,27.6,2.4,25.1,3z M28.8,8.4c-1,0.2-2.1,0.4-3.1,0.6c-0.6,0.1-0.8,0.7-0.6,1.2
		c0.1,0.5,0.6,0.7,1.2,0.6c1.7-0.5,3.4-0.5,5,0c0.3,0.1,0.6,0,0.9-0.2c0.6-0.4,0.4-1.4-0.4-1.6C30.9,8.8,29.9,8.6,28.8,8.4z"/>
	<path d="M22.2,34.5c0,0.5-0.5,0.9-1,0.9c-0.5,0-0.9-0.5-0.9-1c0-0.5,0.5-0.9,1-0.9C21.8,33.5,22.2,34,22.2,34.5z"/>
</g>
</svg>
