<?xml version="1.0" encoding="utf-8"?>
<!-- Generator: Adobe Illustrator 24.0.1, SVG Export Plug-In . SVG Version: 6.00 Build 0)  -->
<svg version="1.1" id="Layer_1" xmlns="http://www.w3.org/2000/svg" xmlns:xlink="http://www.w3.org/1999/xlink" x="0px" y="0px"
	 viewBox="0 0 64.2 140.2" style="enable-background:new 0 0 64.2 140.2;" xml:space="preserve">
<style type="text/css">
	.st0{fill:#11CDBD;}
</style>
<g>
	<path class="st0" d="M42.7,2.6c-0.3,4.8-4.3,6.5-6,10.6c-0.8,2-0.4,5-0.4,7.1c0.1,3.7,2.2,5.7,4.5,8.3c3.2,3.6-0.9,5.8-3.2,8.9
		c-3.2,4.2-1.3,12.5,1.9,15.9c0.8,0.8,3,3.1,2.8,4c-0.4,1.9-2.2,3.4-3.5,4.8c-2.3,2.5-2.5,5.2-2.5,8.3c0,2.8,0.1,5.2,1.9,7.6
		c2.7,3.7,5.6,4.7,2,8.8c-2.3,2.6-3.8,4.4-3.8,8c0,2.6-0.2,5.2,0.8,7.7c1.1,2.8,6,5.1,4.8,8.1c-1.5,3.9-5.3,5.1-5.6,9.8
		c-0.1,1.9-0.3,4.4,0.1,6.2c1.1,4.7,5.9,6.6,6.2,11.7c-0.1-1.2,0.1-3.3,0-4.8c-0.3-3.6-2.2-5.5-4.5-8.1c-2.9-3.3,0.2-5.4,2.6-8.1
		c3-3.5,2.6-11.7,0-15.2c-2.4-3.2-5.4-4.4-2.6-8.1c2.1-2.9,4.4-4.4,4.5-8.3c0-1.9,0.3-4.1-0.1-6c-0.9-3.9-4.4-5.8-5.9-9.3
		c-0.5-1.3,4.9-6.4,5.6-8.1c0.8-1.9,0.4-4.7,0.4-6.7c0-3.5-1.5-5.5-3.8-8c-3.2-3.4-1.6-5.1,1.3-8.1c3.3-3.4,3.6-11.1,1.2-15.2
		c-1.8-3.1-5.9-4.5-3.8-8.1c1.9-3.4,4.8-4.6,5.1-8.9C42.8,6,42.6,3.8,42.7,2.6z M25.7,2.6c-0.3,4.8-4.3,6.5-6,10.6
		c-0.8,2-0.4,5-0.4,7.1c0.1,3.7,2.2,5.7,4.5,8.3c3.2,3.6-0.9,5.8-3.2,8.9c-3.2,4.2-1.3,12.5,1.9,15.9c0.8,0.8,3,3.1,2.8,4
		c-0.4,1.9-2.2,3.4-3.5,4.8c-2.3,2.5-2.5,5.2-2.5,8.3c0,2.8,0.1,5.2,1.9,7.6c2.7,3.7,5.6,4.7,2,8.8c-2.3,2.6-3.8,4.4-3.8,8
		c0,2.6-0.2,5.2,0.8,7.7c1.1,2.8,6,5.1,4.8,8.1c-1.5,3.9-5.3,5.1-5.6,9.8c-0.1,1.9-0.3,4.4,0.1,6.2c1.1,4.7,5.9,6.6,6.2,11.7
		c-0.1-1.2,0.1-3.3,0-4.8c-0.3-3.6-2.2-5.5-4.5-8.1c-2.9-3.3,0.2-5.4,2.6-8.1c3-3.5,2.6-11.7,0-15.2c-2.4-3.2-5.4-4.4-2.6-8.1
		c2.1-2.9,4.4-4.4,4.5-8.3c0-1.9,0.3-4.1-0.1-6c-0.9-3.9-4.4-5.8-5.9-9.3c-0.5-1.3,4.9-6.4,5.6-8.1c0.8-1.9,0.4-4.7,0.4-6.7
		c0-3.5-1.5-5.5-3.8-8c-3.2-3.4-1.6-5.1,1.3-8.1c3.3-3.4,3.6-11.1,1.2-15.2c-1.8-3.1-5.9-4.5-3.8-8.1c1.9-3.4,4.8-4.6,5.1-8.9
		C25.8,6,25.6,3.8,25.7,2.6z M10.6,2.6c-0.3,4.8-4.3,6.5-6,10.6c-0.8,2-0.4,5-0.4,7.1C4.3,24,6.5,26,8.8,28.6
		c3.2,3.6-0.9,5.8-3.2,8.9C2.4,41.8,4.2,50,7.5,53.4c0.8,0.8,3,3.1,2.8,4c-0.4,1.9-2.2,3.4-3.5,4.8c-2.3,2.5-2.5,5.2-2.5,8.3
		c0,2.8,0.1,5.2,1.9,7.6c2.7,3.7,5.6,4.7,2,8.8c-2.3,2.6-3.8,4.4-3.8,8c0,2.6-0.2,5.2,0.8,7.7c1.1,2.8,6,5.1,4.8,8.1
		c-1.5,3.9-5.3,5.1-5.6,9.8c-0.1,1.9-0.3,4.4,0.1,6.2c1.1,4.7,5.9,6.6,6.2,11.7c-0.1-1.2,0.1-3.3,0-4.8c-0.3-3.6-2.2-5.5-4.5-8.1
		c-2.9-3.3,0.2-5.4,2.6-8.1c3-3.5,2.6-11.7,0-15.2c-2.4-3.2-5.4-4.4-2.6-8.1c2.1-2.9,4.4-4.4,4.5-8.3c0-1.9,0.3-4.1-0.1-6
		c-0.9-3.9-4.4-5.8-5.9-9.3c-0.5-1.3,4.9-6.4,5.6-8.1c0.8-1.9,0.4-4.7,0.4-6.7c0-3.5-1.5-5.5-3.8-8c-3.2-3.4-1.6-5.1,1.3-8.1
		c3.3-3.4,3.6-11.1,1.2-15.2c-1.8-3.1-5.9-4.5-3.8-8.1c1.9-3.4,4.8-4.6,5.1-8.9C10.7,6,10.5,3.8,10.6,2.6z M58.7,2.6
		c-0.3,4.8-4.3,6.5-6,10.6c-0.8,2-0.4,5-0.4,7.1c0.1,3.7,2.2,5.7,4.5,8.3c3.2,3.6-0.9,5.8-3.2,8.9c-3.2,4.2-1.3,12.5,1.9,15.9
		c0.8,0.8,3,3.1,2.8,4c-0.4,1.9-2.2,3.4-3.5,4.8c-2.3,2.5-2.5,5.2-2.5,8.3c0,2.8,0.1,5.2,1.9,7.6c2.7,3.7,5.6,4.7,2,8.8
		c-2.3,2.6-3.8,4.4-3.8,8c0,2.6-0.2,5.2,0.8,7.7c1.1,2.8,6,5.1,4.8,8.1c-1.5,3.9-5.3,5.1-5.6,9.8c-0.1,1.9-0.3,4.4,0.1,6.2
		c1.1,4.7,5.9,6.6,6.2,11.7c-0.1-1.2,0.1-3.3,0-4.8c-0.3-3.6-2.2-5.5-4.5-8.1c-2.9-3.3,0.2-5.4,2.6-8.1c3-3.5,2.6-11.7,0-15.2
		c-2.4-3.2-5.4-4.4-2.6-8.1c2.1-2.9,4.4-4.4,4.5-8.3c0-1.9,0.3-4.1-0.1-6c-0.9-3.9-4.4-5.8-5.9-9.3c-0.5-1.3,4.9-6.4,5.6-8.1
		c0.8-1.9,0.4-4.7,0.4-6.7c0-3.5-1.5-5.5-3.8-8c-3.2-3.4-1.6-5.1,1.3-8.1c3.3-3.4,3.6-11.1,1.2-15.2c-1.8-3.1-5.9-4.5-3.8-8.1
		c1.9-3.4,4.8-4.6,5.1-8.9C58.8,6,58.6,3.8,58.7,2.6z"/>
</g>
</svg>
